<?xml version="1.0"?>
<svg xmlns="http://www.w3.org/2000/svg" version="1.2" baseProfile="tiny" width="800" height="398" viewBox="0 0 800 398" stroke-linecap="round" stroke-linejoin="round">
<g id="map (4)">
<path d="M 454.6118 155.1315 782.4909 108.098 760.9043 263.6285 423.283 192.5033 438.4456 174.0957 454.6118 155.1315 Z" stroke="undefined" stroke-width="undefined" fill="undefined"/>
<path d="M 395.2431 317.0786 361.2956 278.5098 373.6183 249.5052 384.1805 227.191 414.9838 217.4667 422.2795 202.8828 421.6495 196.1951 760.8676 268.9244 758.6775 295.3016 572.287 286.1454 523.4003 258.7574 508.4135 260.9549 493.5292 264.4123 483.2669 304.8606 395.2431 317.0786 Z" stroke="undefined" stroke-width="undefined" fill="undefined"/>
<path d="M 436.0797 326.4106 524.7774 304.802 512.3836 259.1603 515.8703 258.8673 523.62 258.4718 536.7903 300.4583 589.7057 286.4164 619.8698 289.2805 438.5042 336.1894 436.0797 326.4106 Z" stroke="undefined" stroke-width="undefined" fill="undefined"/>
<path d="M 381.7725 222.7993 377.9416 218.6534 381.7798 203.0659 387.1857 181.9114 445.5421 95.9921 456.6073 99.2249 445.2906 116.3437 440.8897 122.8124 440.7639 141.5574 447.051 154.5975 415.1743 194.9059 416.1558 202.3993 410.6841 213.9654 381.7725 222.7993 Z" stroke="#000000" stroke-width="2" fill="#000000"/>
<path d="M 454.6118 155.1315 782.4909 108.098 760.9043 263.6285 423.283 192.5033 438.4456 174.0957 454.6118 155.1315 Z" stroke="#000000" stroke-width="2" fill="#000000"/>
<path d="M 395.2431 317.0786 360.5412 278.7007 374.1212 249.1236 384.432 227.191 414.9838 217.4667 422.2795 202.8828 421.6495 196.1951 760.8676 268.9244 758.6775 295.3016 572.287 286.1454 523.4003 258.7574 508.4135 260.9549 493.5292 264.4123 483.2669 304.8606 395.2431 317.0786 Z" stroke="#000000" stroke-width="2" fill="#000000"/>
<path d="M 254.3624 264.8476 361.7986 260.7615 352.9967 279.8459 365.3193 293.5913 299.4767 339.969 208.2299 368.7475 254.3624 264.8476 Z" stroke="#000000" stroke-width="2" fill="#000000"/>
<path d="M 377.642 226.4283 364.0619 256.1823 354.0027 256.3731 346.2067 256.5639 336.9019 256.7547 284.9954 258.8014 250.3921 260.1891 199.3412 371.3636 1 397.1403 36.189 279.1867 200.0334 1 500.3652 2.1428 380.7251 180.549 375.5976 199.1177 370.7265 217.7011 377.642 226.4283 Z" stroke="#000000" stroke-width="2" fill="#000000"/>
<path d="M 436.0797 326.4106 524.7774 304.802 512.3836 259.1603 515.8703 258.8673 523.62 258.4718 536.7903 300.4583 589.7057 286.4164 619.8698 289.2805 438.5042 336.1894 436.0797 326.4106 Z" stroke="#000000" stroke-width="2" fill="#000000"/>
<path d="M 448.6856 91.7136 464.026 70.2319 511.3046 1.4785 799 9.0708 783.2824 102.458 456.0415 151.2657 450.446 151.8369 445.6678 141.0815 445.1649 123.7637 463.0201 96.3724 448.6856 91.7136 Z" stroke="#000000" stroke-width="2" fill="#000000"/>
</g>
</svg>