<?xml version="1.0" encoding="UTF-8" standalone="no"?>
<!DOCTYPE svg PUBLIC "-//W3C//DTD SVG 1.1//EN" "http://www.w3.org/Graphics/SVG/1.1/DTD/svg11.dtd">
<svg version="1.1" xmlns="http://www.w3.org/2000/svg" xmlns:xlink="http://www.w3.org/1999/xlink" preserveAspectRatio="xMidYMid meet" viewBox="0 0 640 640" width="640" height="640"><defs><path d="M347.76 6.84L360.13 8.13L372.35 9.92L384.42 12.19L396.31 14.94L408.03 18.16L419.55 21.83L430.88 25.95L442 30.51L452.9 35.49L463.57 40.89L474.01 46.7L484.19 52.9L494.12 59.49L503.78 66.46L513.16 73.79L522.26 81.47L531.06 89.51L539.54 97.87L547.72 106.56L555.56 115.57L563.07 124.88L570.22 134.49L577.03 144.38L583.46 154.55L589.52 164.98L595.19 175.66L600.46 186.59L605.33 197.75L609.78 209.13L613.81 220.73L617.4 232.54L620.54 244.53L623.22 256.71L625.44 269.06L627.19 281.58L628.44 294.25L629.21 307.06L629.46 320L629.21 332.94L628.44 345.75L627.19 358.42L625.44 370.94L623.22 383.29L620.54 395.47L617.4 407.46L613.81 419.27L609.78 430.87L605.33 442.25L600.46 453.41L595.19 464.34L589.52 475.02L583.46 485.45L577.03 495.62L570.22 505.51L563.07 515.12L555.56 524.43L547.72 533.44L539.54 542.13L531.06 550.49L522.26 558.53L513.16 566.21L503.78 573.54L494.12 580.51L484.19 587.1L474.01 593.3L463.57 599.11L452.9 604.51L442 609.49L430.88 614.05L419.55 618.17L408.03 621.84L396.31 625.06L384.42 627.81L372.35 630.08L360.13 631.87L347.76 633.16L335.25 633.94L322.61 634.2L309.96 633.94L297.45 633.16L285.08 631.87L272.86 630.08L260.8 627.81L248.9 625.06L237.18 621.84L225.66 618.17L214.33 614.05L203.21 609.49L192.31 604.51L181.64 599.11L171.2 593.3L161.02 587.1L151.09 580.51L141.43 573.54L132.05 566.21L122.95 558.53L114.16 550.49L105.67 542.13L97.5 533.44L89.65 524.43L82.15 515.12L74.99 505.51L73.8 503.79L73.79 502.76L105.85 496.29L105.85 389.25L105.6 374.8L109.71 374.51L114.69 373.97L119.6 373.27L124.46 372.41L129.24 371.37L133.96 370.18L138.59 368.84L143.15 367.33L147.62 365.68L152 363.88L156.29 361.93L160.47 359.84L164.56 357.62L168.53 355.25L172.4 352.76L176.14 350.13L179.77 347.38L183.26 344.5L186.63 341.5L189.86 338.39L192.96 335.16L195.9 331.82L198.7 328.37L201.35 324.81L203.84 321.15L206.16 317.4L208.32 313.54L210.31 309.6L212.12 305.56L213.76 301.44L215.2 297.23L216.46 292.94L217.52 288.57L218.39 284.13L219.05 279.61L219.5 275.07L219.73 270.55L219.76 266.06L219.58 261.59L219.19 257.16L218.61 252.76L217.82 248.41L216.85 244.1L215.69 239.84L214.34 235.63L212.81 231.48L211.1 227.39L209.22 223.36L207.17 219.41L204.95 215.53L202.57 211.72L200.02 208L197.33 204.36L194.47 200.81L191.48 197.36L188.33 194L185.05 190.75L181.62 187.6L178.06 184.56L174.38 181.63L170.56 178.82L166.62 176.14L162.57 173.58L158.39 171.15L154.11 168.85L149.71 166.69L145.22 164.68L140.62 162.81L135.92 161.09L131.13 159.53L126.25 158.12L121.28 156.88L116.23 155.8L111.1 154.89L105.89 154.16L101.74 153.72L101.73 153.5L68.58 146.95L68.54 143.87L74.99 134.49L82.15 124.88L89.65 115.57L97.5 106.56L105.67 97.87L114.16 89.51L122.95 81.47L132.05 73.79L141.43 66.46L151.09 59.49L161.02 52.9L171.2 46.7L181.64 40.89L192.31 35.49L203.21 30.51L214.33 25.95L225.66 21.83L237.18 18.16L248.9 14.94L260.8 12.19L272.86 9.92L285.08 8.13L297.45 6.84L309.96 6.06L322.61 5.8L335.25 6.06L347.76 6.84ZM331.35 448.9L331.35 392.14L280.38 402.18L280.38 181.02L229.58 172.14L229.58 467.86L331.35 448.9ZM365.07 284.16L337.82 447.19L381.8 439.1L381.89 438.47L381.79 438.48L386.21 408.02L416.02 403.87L419.88 431.37L419.65 431.41L419.76 432.12L431.45 429.97L431.46 430.03L460.95 424.56L460.69 423.22L427.5 203.7L379.58 195.13L365.27 284.19L365.07 284.16ZM492.93 421.14L527.4 414.81L527.4 303.69L566.06 227.14L530.32 221.86L508.6 264.86L479.24 211.54L435.96 203.93L492.93 307.41L492.93 421.14ZM393 354.33L402.74 273.4L403.47 271.34L412.98 352.13L393 354.33ZM112.97 205.66L115.7 205.95L118.42 206.33L121.09 206.8L123.73 207.36L126.32 208.01L128.87 208.75L131.37 209.56L133.82 210.46L136.22 211.44L138.57 212.49L140.87 213.61L143.1 214.81L145.28 216.08L147.4 217.42L149.45 218.82L151.44 220.28L153.37 221.81L155.22 223.4L157.01 225.04L158.73 226.74L160.37 228.49L161.93 230.29L163.42 232.14L164.83 234.04L166.16 235.98L167.4 237.97L168.56 240L169.63 242.06L170.61 244.16L171.5 246.29L172.3 248.46L173 250.66L173.61 252.88L174.12 255.13L174.53 257.4L174.83 259.7L175.03 262.01L175.13 264.34L175.12 266.69L174.99 269.05L174.76 271.41L174.41 273.77L173.96 276.09L173.41 278.37L172.75 280.61L172 282.8L171.14 284.95L170.2 287.06L169.16 289.12L168.03 291.13L166.82 293.09L165.52 295L164.14 296.86L162.68 298.66L161.14 300.4L159.53 302.08L157.84 303.71L156.08 305.27L154.26 306.78L152.36 308.21L150.41 309.58L148.39 310.89L146.32 312.12L144.19 313.28L142 314.37L139.76 315.39L137.48 316.33L135.15 317.19L132.77 317.97L130.35 318.68L127.89 319.3L125.39 319.84L122.86 320.29L120.29 320.66L117.7 320.93L115.07 321.12L112.42 321.22L109.75 321.22L107.06 321.13L105.29 321L105.29 205.38L107.56 205.38L110.26 205.47L112.97 205.66Z" id="a1eaB4CZr"></path></defs><g><g><g><use xlink:href="#a1eaB4CZr" opacity="1" fill="#2360a5" fill-opacity="1"></use></g></g></g></svg>