<?xml version="1.0" encoding="UTF-8" standalone="no"?>
<!DOCTYPE svg PUBLIC "-//W3C//DTD SVG 1.1//EN" "http://www.w3.org/Graphics/SVG/1.1/DTD/svg11.dtd">
<svg version="1.1" xmlns="http://www.w3.org/2000/svg" xmlns:xlink="http://www.w3.org/1999/xlink" preserveAspectRatio="xMidYMid meet" viewBox="0 0 640 640" width="640" height="640"><defs><path d="M537.73 336.2C537.73 453.11 440.17 548.02 320 548.02C199.83 548.02 102.27 453.11 102.27 336.2C102.27 219.29 199.83 124.38 320 124.38C440.17 124.38 537.73 219.29 537.73 336.2Z" id="daicvFi0H"></path><path d="M269.7 407.94C269.7 432.97 246.38 453.29 217.66 453.29C188.93 453.29 165.61 432.97 165.61 407.94C165.61 382.91 188.93 362.59 217.66 362.59C246.38 362.59 269.7 382.91 269.7 407.94Z" id="ci6AcNXBS"></path><path d="M243.75 230.56L268.86 230.56L268.86 405.73L243.75 405.73L243.75 230.56Z" id="ajIDuVmg9"></path><path d="M254.62 252.31L252.11 230.11L402.1 213.12L404.62 235.32L254.62 252.31Z" id="a4CmovMcw"></path><path d="M399.42 213.1L424.53 213.1L424.53 390.38L399.42 390.38L399.42 213.1Z" id="a9NyYBl2Ak"></path><path d="M424.94 393.29C424.94 418.31 401.62 438.64 372.9 438.64C344.18 438.64 320.86 418.31 320.86 393.29C320.86 368.26 344.18 347.94 372.9 347.94C401.62 347.94 424.94 368.26 424.94 393.29Z" id="a1gyuHwdn0"></path></defs><g><g><g><use xlink:href="#daicvFi0H" opacity="1" fill="#0039a6" fill-opacity="1"></use></g><g><use xlink:href="#ci6AcNXBS" opacity="1" fill="#ffffff" fill-opacity="1"></use></g><g><use xlink:href="#ajIDuVmg9" opacity="1" fill="#ffffff" fill-opacity="1"></use></g><g><use xlink:href="#a4CmovMcw" opacity="1" fill="#ffffff" fill-opacity="1"></use></g><g><use xlink:href="#a9NyYBl2Ak" opacity="1" fill="#ffffff" fill-opacity="1"></use></g><g><use xlink:href="#a1gyuHwdn0" opacity="1" fill="#ffffff" fill-opacity="1"></use></g></g></g></svg>